<?xml version="1.0" encoding="utf-8"?>
<!-- Generator: Adobe Illustrator 27.7.0, SVG Export Plug-In . SVG Version: 6.00 Build 0)  -->
<svg version="1.1" id="Montserrat_Horizontal" xmlns="http://www.w3.org/2000/svg" xmlns:xlink="http://www.w3.org/1999/xlink"
	 x="0px" y="0px" viewBox="0 0 165 64" style="enable-background:new 0 0 165 64;" xml:space="preserve">
<style type="text/css">
	.st0{fill:#D34F00;}
	.st1{fill:#FFFFFF;}
	.st2{enable-background:new    ;}
</style>
<g>
	<g id="MagickHome_Logo_Horizontal_00000145023982738739849490000010295607618596816536_" transform="translate(35 16.625)">
		<path id="Path_550_00000116214977267239306930000000667341921498573709_" class="st0" d="M3.7,0.5L-10.7,15h8.2L6,6.5v14.2h-29V19
			l10.4-10.4l-4.1-4.1l-12.1,12.1v9.9h40.4v-26H3.7L3.7,0.5z M-28.7-11V8.5l5.8-5.8v-8h4.6l5.8,5.8l4.1,4.1l0,0l2-2l0,0l7.8-7.8H6
			l0,0h3.6l0,0h2.2V-11H-1.1l-7.5,7.5L-16-11H-28.7L-28.7-11z"/>
		<g id="Group_532_00000067931423865142643880000002852618160933375419_" transform="translate(60.827)">
			<path id="Path_551_00000160886886888007055440000000127191366940137893_" class="st1" d="M-25.5,5.6v-9.8l-4.8,8.1H-32L-36.9-4
				v9.6h-3.6v-16.4h3.1l6.1,10.2l6-10.2h3.1V5.6L-25.5,5.6L-25.5,5.6z"/>
			<path id="Path_552_00000110437720669809870710000016519715358047614384_" class="st1" d="M-8.5,2.1h-7.6l-1.4,3.5h-3.9l7.3-16.4
				h3.7l7.3,16.4h-4L-8.5,2.1z M-9.7-0.8l-2.6-6.3l-2.6,6.3C-14.9-0.8-9.7-0.8-9.7-0.8z"/>
			<path id="Path_553_00000183250863525033771130000007085885135253308077_" class="st1" d="M5.4-3.7h6.4v7.4c-1,0.8-2,1.3-3.1,1.6
				C7.5,5.7,6.3,5.9,5.1,5.9C3.6,5.9,2,5.5,0.6,4.8c-1.3-0.7-2.4-1.7-3.2-3c-1.5-2.7-1.5-6,0-8.7c0.8-1.3,1.9-2.3,3.2-3
				C2-10.6,3.6-11,5.2-11c1.3,0,2.7,0.2,3.9,0.7c1.1,0.5,2.1,1.2,2.9,2.1L9.6-6C8.5-7.2,7-7.9,5.4-7.8c-1,0-1.9,0.2-2.8,0.7
				c-0.8,0.3-1.4,1-1.9,1.8c-0.9,1.7-0.9,3.7,0,5.5C1.2,0.9,1.8,1.5,2.6,2s1.8,0.7,2.7,0.7c1,0,2-0.2,2.9-0.7v-2.2H5.4V-3.7z"/>
			<path id="Path_554_00000178162854338411357340000007451290506521530759_" class="st1" d="M14.1-10.8h3.8V5.6h-3.8
				C14.1,5.6,14.1-10.8,14.1-10.8z"/>
			<path id="Path_555_00000165927998842651462580000001256572503292126119_" class="st1" d="M23.9,4.8c-1.3-0.7-2.4-1.7-3.2-3
				c-1.5-2.7-1.5-6,0-8.7c0.8-1.3,1.9-2.3,3.2-3c1.4-0.7,3-1.1,4.5-1.1c1.3,0,2.6,0.2,3.8,0.8C33.3-9.7,34.3-9,35.1-8l-2.4,2.2
				c-1-1.2-2.5-1.9-4.1-1.9c-0.9,0-1.9,0.2-2.7,0.7c-0.8,0.4-1.4,1.1-1.9,1.9c-0.9,1.7-0.9,3.7,0,5.4c0.4,0.8,1.1,1.4,1.9,1.9
				s1.8,0.7,2.7,0.7c1.6,0,3.1-0.7,4.1-1.9l2.4,2.2c-0.8,0.9-1.8,1.7-2.9,2.2c-1.2,0.5-2.5,0.8-3.9,0.8C26.9,5.9,25.3,5.5,23.9,4.8z
				"/>
			<path id="Path_556_00000084496470484547320460000008051245032086389128_" class="st1" d="M42.5-0.8l-2.2,2.3v4.1h-3.8v-16.4h3.8
				v7.6l7.2-7.6h4.2L45-3.5l7.2,9.1h-4.4L42.5-0.8z"/>
		</g>
		<g id="Group_533_00000143602023340325935480000012762428920329567154_" transform="translate(60.837 25.546)">
			<path id="Path_557_00000109004114195967691260000010295358346568631461_" class="st0" d="M-25.4-15.7V0.7h-3.8V-6h-7.4v6.7h-3.8
				v-16.4h3.8v6.5h7.4v-6.5H-25.4L-25.4-15.7z"/>
			<path id="Path_558_00000050638749926529693410000007634147353430146216_" class="st0" d="M-19.4-0.1c-1.3-0.7-2.4-1.7-3.2-3
				c-1.5-2.7-1.5-6,0-8.7c0.8-1.3,1.9-2.3,3.2-3c2.9-1.5,6.3-1.5,9.2,0c4.1,2.2,5.6,7.2,3.4,11.3c-0.8,1.5-2,2.7-3.4,3.4
				C-13.1,1.3-16.5,1.3-19.4-0.1L-19.4-0.1z M-12.2-2.9c0.8-0.4,1.4-1.1,1.8-1.9c0.9-1.7,0.9-3.7,0-5.4c-0.4-0.8-1.1-1.4-1.8-1.9
				c-1.6-0.9-3.6-0.9-5.2,0c-0.8,0.4-1.4,1.1-1.8,1.9c-0.9,1.7-0.9,3.7,0,5.4c0.4,0.8,1.1,1.4,1.8,1.9C-15.8-2.1-13.8-2.1-12.2-2.9z
				"/>
			<path id="Path_559_00000088131990211542767310000011692659142892047549_" class="st0" d="M10.8,0.7v-9.8l-4.9,8H4.2L-0.6-9v9.6
				h-3.6v-16.4H-1L5.1-5.5l6-10.2h3.1V0.7L10.8,0.7L10.8,0.7z"/>
			<path id="Path_560_00000120547817094089979210000002610125164682909076_" class="st0" d="M29.7-2.4v3H17v-16.4h12.4v3h-8.6v3.6
				h7.6v3h-7.6v3.8L29.7-2.4L29.7-2.4z"/>
		</g>
	</g>
	<g class="st2">
		<path class="st1" d="M17.4,49.2L15,56.4h-1.4l-1.8-5.3L10,56.4H8.6l-2.4-7.2h1.4l1.8,5.5l1.9-5.5h1.2l1.8,5.5l1.8-5.5H17.4z"/>
		<path class="st1" d="M24,53.3v3.1h-1.3v-3c0-1-0.5-1.4-1.3-1.4c-0.9,0-1.5,0.6-1.5,1.7v2.8h-1.3v-7.6h1.3v2.8
			c0.4-0.5,1.1-0.7,1.8-0.7C23,50.9,24,51.6,24,53.3z"/>
		<path class="st1" d="M30.8,54.1h-4.3c0.2,0.8,0.8,1.3,1.8,1.3c0.6,0,1.1-0.2,1.5-0.6l0.7,0.8c-0.5,0.6-1.3,0.9-2.2,0.9
			c-1.8,0-3-1.2-3-2.8s1.2-2.8,2.8-2.8s2.8,1.1,2.8,2.8C30.8,53.8,30.8,53.9,30.8,54.1z M26.5,53.2h3.1c-0.1-0.8-0.7-1.3-1.5-1.3
			C27.2,51.9,26.6,52.4,26.5,53.2z"/>
		<path class="st1" d="M35.2,50.9v1.2c-0.1,0-0.2,0-0.3,0c-1,0-1.6,0.6-1.6,1.7v2.7H32V51h1.2v0.8C33.6,51.1,34.3,50.9,35.2,50.9z"
			/>
		<path class="st1" d="M41.4,54.1h-4.3c0.2,0.8,0.8,1.3,1.8,1.3c0.6,0,1.1-0.2,1.5-0.6l0.7,0.8c-0.5,0.6-1.3,0.9-2.2,0.9
			c-1.8,0-3-1.2-3-2.8s1.2-2.8,2.8-2.8s2.8,1.1,2.8,2.8C41.4,53.8,41.4,53.9,41.4,54.1z M37.1,53.2h3.1c-0.1-0.8-0.7-1.3-1.5-1.3
			C37.8,51.9,37.2,52.4,37.1,53.2z"/>
		<path class="st1" d="M45.6,49.2h3.1c2.3,0,3.9,1.4,3.9,3.6s-1.6,3.6-3.9,3.6h-3.1V49.2z M48.7,55.3c1.6,0,2.6-1,2.6-2.5
			s-1-2.5-2.6-2.5h-1.8v4.9L48.7,55.3L48.7,55.3z"/>
		<path class="st1" d="M59.1,54.1h-4.3c0.2,0.8,0.8,1.3,1.8,1.3c0.6,0,1.1-0.2,1.5-0.6l0.7,0.8c-0.5,0.6-1.3,0.9-2.2,0.9
			c-1.8,0-3-1.2-3-2.8s1.2-2.8,2.8-2.8s2.8,1.1,2.8,2.8C59.1,53.8,59.1,53.9,59.1,54.1z M54.8,53.2h3.1c-0.1-0.8-0.7-1.3-1.5-1.3
			C55.5,51.9,54.9,52.4,54.8,53.2z"/>
		<path class="st1" d="M59.7,55.8l0.5-1c0.5,0.3,1.2,0.5,1.9,0.5c0.8,0,1.1-0.2,1.1-0.6c0-1-3.4-0.1-3.4-2.2c0-1,0.9-1.7,2.4-1.7
			c0.7,0,1.6,0.2,2.1,0.5l-0.5,1c-0.5-0.3-1-0.4-1.6-0.4c-0.8,0-1.1,0.3-1.1,0.6c0,1.1,3.4,0.1,3.4,2.3c0,1-0.9,1.7-2.5,1.7
			C61.1,56.5,60.2,56.2,59.7,55.8z"/>
		<path class="st1" d="M65.4,49.2c0-0.4,0.3-0.8,0.8-0.8s0.8,0.3,0.8,0.7c0,0.5-0.3,0.8-0.8,0.8C65.8,50,65.4,49.7,65.4,49.2z
			 M65.6,50.9h1.3v5.5h-1.3V50.9z"/>
		<path class="st1" d="M74,50.9v4.6c0,2-1,2.9-3,2.9c-1,0-2-0.3-2.7-0.8l0.6-1c0.5,0.4,1.3,0.7,2,0.7c1.2,0,1.8-0.6,1.8-1.7v-0.3
			c-0.5,0.5-1.1,0.7-1.8,0.7c-1.6,0-2.8-1.1-2.8-2.7c0-1.6,1.2-2.6,2.8-2.6c0.8,0,1.4,0.2,1.9,0.8v-0.7L74,50.9L74,50.9z M72.8,53.5
			c0-0.9-0.7-1.5-1.7-1.5s-1.7,0.6-1.7,1.5s0.7,1.6,1.7,1.6C72.1,55.1,72.8,54.4,72.8,53.5z"/>
		<path class="st1" d="M81.1,53.3v3.1h-1.3v-3c0-1-0.5-1.4-1.3-1.4c-0.9,0-1.5,0.6-1.5,1.7v2.8h-1.3V51h1.2v0.7
			c0.4-0.5,1.1-0.8,1.9-0.8C80.1,50.9,81.1,51.6,81.1,53.3z"/>
		<path class="st1" d="M92.3,56.4v-4.8l-2.4,3.9h-0.6L87,51.7v4.7h-1.3v-7.2h1.1l2.9,4.8l2.8-4.8h1.1v7.2H92.3L92.3,56.4z"/>
		<path class="st1" d="M100.5,54.1h-4.3c0.2,0.8,0.8,1.3,1.8,1.3c0.6,0,1.1-0.2,1.5-0.6l0.7,0.8c-0.5,0.6-1.3,0.9-2.2,0.9
			c-1.8,0-3-1.2-3-2.8s1.2-2.8,2.8-2.8c1.6,0,2.8,1.1,2.8,2.8C100.5,53.8,100.5,53.9,100.5,54.1z M96.2,53.2h3.1
			c-0.1-0.8-0.7-1.3-1.5-1.3C96.9,51.9,96.3,52.4,96.2,53.2z"/>
		<path class="st1" d="M106.9,54.1h-4.3c0.2,0.8,0.8,1.3,1.8,1.3c0.6,0,1.1-0.2,1.5-0.6l0.7,0.8c-0.5,0.6-1.3,0.9-2.2,0.9
			c-1.8,0-3-1.2-3-2.8s1.2-2.8,2.8-2.8c1.6,0,2.8,1.1,2.8,2.8C106.9,53.8,106.9,53.9,106.9,54.1z M102.6,53.2h3.1
			c-0.1-0.8-0.7-1.3-1.5-1.3C103.3,51.9,102.7,52.4,102.6,53.2z"/>
		<path class="st1" d="M111.5,56.1c-0.3,0.2-0.8,0.4-1.2,0.4c-1.2,0-1.9-0.6-1.9-1.9V52h-0.9v-1h0.9v-1.3h1.3V51h1.5v1h-1.5v2.6
			c0,0.5,0.3,0.8,0.8,0.8c0.3,0,0.5-0.1,0.7-0.2L111.5,56.1z"/>
		<path class="st1" d="M111.9,55.8l0.5-1c0.5,0.3,1.2,0.5,1.9,0.5c0.8,0,1.1-0.2,1.1-0.6c0-1-3.4-0.1-3.4-2.2c0-1,0.9-1.7,2.4-1.7
			c0.7,0,1.6,0.2,2.1,0.5l-0.5,1c-0.5-0.3-1-0.4-1.6-0.4c-0.8,0-1.1,0.3-1.1,0.6c0,1.1,3.4,0.1,3.4,2.3c0,1-0.9,1.7-2.5,1.7
			C113.3,56.5,112.4,56.2,111.9,55.8z"/>
		<path class="st1" d="M120.8,49.2h3.1c2.3,0,3.9,1.4,3.9,3.6s-1.6,3.6-3.9,3.6h-3.1V49.2z M123.8,55.3c1.6,0,2.6-1,2.6-2.5
			s-1-2.5-2.6-2.5H122v4.9L123.8,55.3L123.8,55.3z"/>
		<path class="st1" d="M134.2,54.1h-4.3c0.2,0.8,0.8,1.3,1.8,1.3c0.6,0,1.1-0.2,1.5-0.6l0.7,0.8c-0.5,0.6-1.3,0.9-2.2,0.9
			c-1.8,0-3-1.2-3-2.8s1.2-2.8,2.8-2.8s2.8,1.1,2.8,2.8C134.2,53.8,134.2,53.9,134.2,54.1z M129.8,53.2h3.1
			c-0.1-0.8-0.7-1.3-1.5-1.3S130.1,52.4,129.8,53.2z"/>
		<path class="st1" d="M135.4,48.8h1.3v7.6h-1.3V48.8z"/>
		<path class="st1" d="M138.2,49.2c0-0.4,0.3-0.8,0.8-0.8s0.8,0.3,0.8,0.7c0,0.5-0.3,0.8-0.8,0.8C138.6,50,138.2,49.7,138.2,49.2z
			 M138.4,50.9h1.3v5.5h-1.3V50.9z"/>
		<path class="st1" d="M146.8,50.9v4.6c0,2-1,2.9-3,2.9c-1,0-2-0.3-2.7-0.8l0.6-1c0.5,0.4,1.3,0.7,2,0.7c1.2,0,1.8-0.6,1.8-1.7v-0.3
			c-0.5,0.5-1.1,0.7-1.8,0.7c-1.6,0-2.8-1.1-2.8-2.7c0-1.6,1.2-2.6,2.8-2.6c0.8,0,1.4,0.2,1.9,0.8v-0.7L146.8,50.9L146.8,50.9z
			 M145.6,53.5c0-0.9-0.7-1.5-1.7-1.5s-1.7,0.6-1.7,1.5s0.7,1.6,1.7,1.6C144.8,55.1,145.6,54.4,145.6,53.5z"/>
		<path class="st1" d="M153.9,53.3v3.1h-1.3v-3c0-1-0.5-1.4-1.3-1.4c-0.9,0-1.5,0.6-1.5,1.7v2.8h-1.3v-7.6h1.3v2.8
			c0.4-0.5,1.1-0.7,1.8-0.7C152.9,50.9,153.9,51.6,153.9,53.3z"/>
		<path class="st1" d="M158.8,56.1c-0.3,0.2-0.8,0.4-1.2,0.4c-1.2,0-1.9-0.6-1.9-1.9V52h-0.9v-1h0.9v-1.3h1.3V51h1.5v1h-1.5v2.6
			c0,0.5,0.3,0.8,0.8,0.8c0.3,0,0.5-0.1,0.7-0.2L158.8,56.1z"/>
	</g>
</g>
</svg>
